<mxfile host="app.diagrams.net" modified="2023-02-05T12:20:45.011Z" agent="5.0 (X11; Linux x86_64) AppleWebKit/537.36 (KHTML, like Gecko) Chrome/108.0.0.0 Safari/537.36" etag="fQ2CXV0gaD_C59CrOTF_" version="20.8.16" type="github">
  <diagram name="Page-1" id="e7e014a7-5840-1c2e-5031-d8a46d1fe8dd">
    <mxGraphModel dx="953" dy="555" grid="1" gridSize="10" guides="1" tooltips="1" connect="1" arrows="1" fold="1" page="1" pageScale="1" pageWidth="1169" pageHeight="826" background="none" math="0" shadow="0">
      <root>
        <mxCell id="0" />
        <mxCell id="1" parent="0" />
        <mxCell id="A6HuGLP8O0-D-i3W-1Ny-46" value="" style="edgeStyle=orthogonalEdgeStyle;rounded=0;orthogonalLoop=1;jettySize=auto;html=1;" edge="1" parent="1" source="A6HuGLP8O0-D-i3W-1Ny-41" target="A6HuGLP8O0-D-i3W-1Ny-43">
          <mxGeometry relative="1" as="geometry" />
        </mxCell>
        <mxCell id="A6HuGLP8O0-D-i3W-1Ny-59" style="edgeStyle=orthogonalEdgeStyle;rounded=0;orthogonalLoop=1;jettySize=auto;html=1;entryX=0;entryY=0.75;entryDx=0;entryDy=0;" edge="1" parent="1" source="A6HuGLP8O0-D-i3W-1Ny-41" target="A6HuGLP8O0-D-i3W-1Ny-44">
          <mxGeometry relative="1" as="geometry" />
        </mxCell>
        <mxCell id="A6HuGLP8O0-D-i3W-1Ny-61" style="edgeStyle=orthogonalEdgeStyle;rounded=0;orthogonalLoop=1;jettySize=auto;html=1;entryX=0;entryY=0.5;entryDx=0;entryDy=0;" edge="1" parent="1" source="A6HuGLP8O0-D-i3W-1Ny-41" target="A6HuGLP8O0-D-i3W-1Ny-42">
          <mxGeometry relative="1" as="geometry" />
        </mxCell>
        <mxCell id="A6HuGLP8O0-D-i3W-1Ny-63" style="edgeStyle=orthogonalEdgeStyle;rounded=0;orthogonalLoop=1;jettySize=auto;html=1;entryX=0;entryY=1;entryDx=0;entryDy=0;" edge="1" parent="1" source="A6HuGLP8O0-D-i3W-1Ny-41" target="A6HuGLP8O0-D-i3W-1Ny-45">
          <mxGeometry relative="1" as="geometry" />
        </mxCell>
        <mxCell id="A6HuGLP8O0-D-i3W-1Ny-41" value="Inventory and Warehouse IT System" style="rounded=0;whiteSpace=wrap;html=1;" vertex="1" parent="1">
          <mxGeometry x="40" y="390" width="120" height="60" as="geometry" />
        </mxCell>
        <mxCell id="A6HuGLP8O0-D-i3W-1Ny-54" style="edgeStyle=orthogonalEdgeStyle;rounded=0;orthogonalLoop=1;jettySize=auto;html=1;" edge="1" parent="1" source="A6HuGLP8O0-D-i3W-1Ny-42">
          <mxGeometry relative="1" as="geometry">
            <mxPoint x="480" y="620" as="targetPoint" />
          </mxGeometry>
        </mxCell>
        <mxCell id="A6HuGLP8O0-D-i3W-1Ny-42" value="Products" style="rounded=0;whiteSpace=wrap;html=1;" vertex="1" parent="1">
          <mxGeometry x="270" y="220" width="120" height="60" as="geometry" />
        </mxCell>
        <mxCell id="A6HuGLP8O0-D-i3W-1Ny-79" style="edgeStyle=orthogonalEdgeStyle;rounded=0;orthogonalLoop=1;jettySize=auto;html=1;" edge="1" parent="1" source="A6HuGLP8O0-D-i3W-1Ny-43">
          <mxGeometry relative="1" as="geometry">
            <mxPoint x="480" y="370" as="targetPoint" />
          </mxGeometry>
        </mxCell>
        <mxCell id="A6HuGLP8O0-D-i3W-1Ny-43" value="Sales" style="rounded=0;whiteSpace=wrap;html=1;" vertex="1" parent="1">
          <mxGeometry x="270" y="340" width="120" height="60" as="geometry" />
        </mxCell>
        <mxCell id="A6HuGLP8O0-D-i3W-1Ny-80" style="edgeStyle=orthogonalEdgeStyle;rounded=0;orthogonalLoop=1;jettySize=auto;html=1;" edge="1" parent="1" source="A6HuGLP8O0-D-i3W-1Ny-44">
          <mxGeometry relative="1" as="geometry">
            <mxPoint x="480" y="490" as="targetPoint" />
          </mxGeometry>
        </mxCell>
        <mxCell id="A6HuGLP8O0-D-i3W-1Ny-44" value="Payments" style="rounded=0;whiteSpace=wrap;html=1;" vertex="1" parent="1">
          <mxGeometry x="270" y="460" width="120" height="60" as="geometry" />
        </mxCell>
        <mxCell id="A6HuGLP8O0-D-i3W-1Ny-78" style="edgeStyle=orthogonalEdgeStyle;rounded=0;orthogonalLoop=1;jettySize=auto;html=1;" edge="1" parent="1" source="A6HuGLP8O0-D-i3W-1Ny-45">
          <mxGeometry relative="1" as="geometry">
            <mxPoint x="480" y="620" as="targetPoint" />
          </mxGeometry>
        </mxCell>
        <mxCell id="A6HuGLP8O0-D-i3W-1Ny-45" value="Stock" style="rounded=0;whiteSpace=wrap;html=1;" vertex="1" parent="1">
          <mxGeometry x="270" y="590" width="120" height="60" as="geometry" />
        </mxCell>
        <mxCell id="A6HuGLP8O0-D-i3W-1Ny-66" style="edgeStyle=orthogonalEdgeStyle;rounded=0;orthogonalLoop=1;jettySize=auto;html=1;" edge="1" parent="1" source="A6HuGLP8O0-D-i3W-1Ny-51">
          <mxGeometry relative="1" as="geometry">
            <mxPoint x="480" y="290" as="targetPoint" />
          </mxGeometry>
        </mxCell>
        <mxCell id="A6HuGLP8O0-D-i3W-1Ny-75" style="edgeStyle=orthogonalEdgeStyle;rounded=0;orthogonalLoop=1;jettySize=auto;html=1;startArrow=none;" edge="1" parent="1" source="A6HuGLP8O0-D-i3W-1Ny-77">
          <mxGeometry relative="1" as="geometry">
            <mxPoint x="860" y="430" as="targetPoint" />
          </mxGeometry>
        </mxCell>
        <mxCell id="A6HuGLP8O0-D-i3W-1Ny-51" value="Internet Gateway and Portal(IGP)" style="rounded=0;whiteSpace=wrap;html=1;" vertex="1" parent="1">
          <mxGeometry x="660" y="260" width="120" height="60" as="geometry" />
        </mxCell>
        <mxCell id="A6HuGLP8O0-D-i3W-1Ny-95" style="edgeStyle=orthogonalEdgeStyle;rounded=0;orthogonalLoop=1;jettySize=auto;html=1;" edge="1" parent="1" source="A6HuGLP8O0-D-i3W-1Ny-53">
          <mxGeometry relative="1" as="geometry">
            <mxPoint x="860" y="520" as="targetPoint" />
          </mxGeometry>
        </mxCell>
        <mxCell id="A6HuGLP8O0-D-i3W-1Ny-53" value="Supplier Database" style="rounded=0;whiteSpace=wrap;html=1;" vertex="1" parent="1">
          <mxGeometry x="640" y="495" width="120" height="60" as="geometry" />
        </mxCell>
        <mxCell id="A6HuGLP8O0-D-i3W-1Ny-70" value="" style="shape=providedRequiredInterface;html=1;verticalLabelPosition=bottom;sketch=0;direction=west;" vertex="1" parent="1">
          <mxGeometry x="575" y="280" width="20" height="20" as="geometry" />
        </mxCell>
        <mxCell id="A6HuGLP8O0-D-i3W-1Ny-94" style="edgeStyle=orthogonalEdgeStyle;rounded=0;orthogonalLoop=1;jettySize=auto;html=1;exitX=0;exitY=0.5;exitDx=0;exitDy=0;exitPerimeter=0;startArrow=none;" edge="1" parent="1" source="A6HuGLP8O0-D-i3W-1Ny-77">
          <mxGeometry relative="1" as="geometry">
            <mxPoint x="860" y="430" as="targetPoint" />
            <mxPoint x="860" y="520" as="sourcePoint" />
          </mxGeometry>
        </mxCell>
        <mxCell id="A6HuGLP8O0-D-i3W-1Ny-76" value="" style="edgeStyle=orthogonalEdgeStyle;rounded=0;orthogonalLoop=1;jettySize=auto;html=1;endArrow=none;" edge="1" parent="1" source="A6HuGLP8O0-D-i3W-1Ny-51" target="A6HuGLP8O0-D-i3W-1Ny-77">
          <mxGeometry relative="1" as="geometry">
            <mxPoint x="860" y="430" as="targetPoint" />
            <mxPoint x="780" y="290" as="sourcePoint" />
          </mxGeometry>
        </mxCell>
        <mxCell id="A6HuGLP8O0-D-i3W-1Ny-86" value="Encryption" style="text;strokeColor=none;align=center;fillColor=none;html=1;verticalAlign=middle;whiteSpace=wrap;rounded=0;" vertex="1" parent="1">
          <mxGeometry x="555" y="250" width="60" height="30" as="geometry" />
        </mxCell>
        <mxCell id="A6HuGLP8O0-D-i3W-1Ny-87" value="" style="endArrow=open;endFill=1;endSize=12;html=1;rounded=0;" edge="1" parent="1">
          <mxGeometry width="160" relative="1" as="geometry">
            <mxPoint x="480" y="320" as="sourcePoint" />
            <mxPoint x="660" y="320" as="targetPoint" />
          </mxGeometry>
        </mxCell>
        <mxCell id="A6HuGLP8O0-D-i3W-1Ny-88" value="Access Control" style="text;strokeColor=none;align=center;fillColor=none;html=1;verticalAlign=middle;whiteSpace=wrap;rounded=0;" vertex="1" parent="1">
          <mxGeometry x="555" y="330" width="60" height="30" as="geometry" />
        </mxCell>
        <mxCell id="A6HuGLP8O0-D-i3W-1Ny-89" value="" style="shape=providedRequiredInterface;html=1;verticalLabelPosition=bottom;sketch=0;direction=west;" vertex="1" parent="1">
          <mxGeometry x="535" y="310" width="20" height="20" as="geometry" />
        </mxCell>
        <mxCell id="A6HuGLP8O0-D-i3W-1Ny-93" value="Database&lt;br&gt;Connector" style="text;strokeColor=none;align=center;fillColor=none;html=1;verticalAlign=middle;whiteSpace=wrap;rounded=0;" vertex="1" parent="1">
          <mxGeometry x="780" y="398" width="60" height="30" as="geometry" />
        </mxCell>
        <mxCell id="A6HuGLP8O0-D-i3W-1Ny-96" value="" style="edgeStyle=orthogonalEdgeStyle;rounded=0;orthogonalLoop=1;jettySize=auto;html=1;exitX=0;exitY=0.5;exitDx=0;exitDy=0;exitPerimeter=0;endArrow=none;" edge="1" parent="1" target="A6HuGLP8O0-D-i3W-1Ny-77">
          <mxGeometry relative="1" as="geometry">
            <mxPoint x="860" y="430" as="targetPoint" />
            <mxPoint x="860" y="520" as="sourcePoint" />
          </mxGeometry>
        </mxCell>
        <mxCell id="A6HuGLP8O0-D-i3W-1Ny-77" value="" style="shape=providedRequiredInterface;html=1;verticalLabelPosition=bottom;sketch=0;direction=south;" vertex="1" parent="1">
          <mxGeometry x="850" y="413" width="20" height="20" as="geometry" />
        </mxCell>
      </root>
    </mxGraphModel>
  </diagram>
</mxfile>
